<svg xmlns="http://www.w3.org/2000/svg" viewBox="0 0 100 100" width="100px" height="100px"><title>no delay</title><path fill="#0f33fa" d="M38.73 4.48h8.06v14.69h-8.06z"/><path fill="#72ccff" d="M31.22.45h23.07v8.06H31.22z"/><circle cx="42.76" cy="56.86" r="42.15" fill="#72ccff"/><circle cx="42.76" cy="56.86" r="34.72" fill="#fff"/><path d="M30.81 49.64l5.6 4.47-.26 13.55 2.33 1.86 4.27-10.4 6.84 3.64c.13 1.65.39 6.28.39 6.28l1.6 1.28 2.19-6.47 5.82-3.56L58 59s-4.59.78-6.46 1.07l-5-5.8 9.39-6.59-2.33-1.86-13.46 3.34-5.46-4.36a3.1 3.1 0 0 0-3.87 4.84z" fill="#0f33fa" fill-rule="evenodd"/><path fill="none" stroke="#dfdfdf" stroke-miterlimit="10" stroke-width="2.83" d="M42.76 25.97v8M58.25 30.14l-4.01 6.91M69.56 41.51l-6.94 3.97M73.64 57.02l-7.99-.04M69.4 72.49l-6.9-4.05M57.97 83.74l-3.94-6.96M42.44 87.74l.08-8M26.99 83.42l4.09-6.88M15.8 71.93l6.98-3.91M11.88 56.37l7.99.13M16.28 40.95l6.86 4.12M27.83 29.82l3.86 7"/><path d="M17.56 22.95a42.61 42.61 0 0 0-8.83 59.6l68.38-50.38a42.61 42.61 0 0 0-59.55-9.22z" fill="#fff" opacity=".3"/><circle cx="82.65" cy="82.55" r="17" fill="#50d48b"/><path fill="#fff" d="M80.75 91.71l-9.4-9.41 2.83-2.83 6.58 6.58 10.35-10.36 2.83 2.83-13.19 13.19z"/></svg>
